<svg width="13" height="14" viewBox="0 0 13 14" fill="none" xmlns="http://www.w3.org/2000/svg">
<path d="M0.0546875 7.35938C0.0546875 6.97656 0.375 6.65625 0.75 6.65625H5.80469V1.60938C5.80469 1.23438 6.11719 0.914062 6.5 0.914062C6.88281 0.914062 7.20312 1.23438 7.20312 1.60938V6.65625H12.25C12.625 6.65625 12.9453 6.97656 12.9453 7.35938C12.9453 7.74219 12.625 8.05469 12.25 8.05469H7.20312V13.1094C7.20312 13.4844 6.88281 13.8047 6.5 13.8047C6.11719 13.8047 5.80469 13.4844 5.80469 13.1094V8.05469H0.75C0.375 8.05469 0.0546875 7.74219 0.0546875 7.35938Z"  fill="#B8BCBA"/>
</svg>
