<svg width="24" height="24" viewBox="0 0 24 24" fill="none" xmlns="http://www.w3.org/2000/svg">
<path d="M19.2 13.6857C20.4674 14.6326 21.6 17.0167 21.6 18.4856C21.6 18.9433 21.2661 19.3143 20.8543 19.3143H20.4M15.6 9.80447C16.4199 9.33022 16.9715 8.4438 16.9715 7.42856C16.9715 6.41331 16.4199 5.5269 15.6 5.05264M3.14579 19.3143H16.2828C16.6947 19.3143 17.0286 18.9433 17.0286 18.4856C17.0286 15.609 14.6253 13.2771 9.71431 13.2771C4.80329 13.2771 2.40002 15.609 2.40002 18.4856C2.40002 18.9433 2.73392 19.3143 3.14579 19.3143ZM12.4572 7.42856C12.4572 8.94339 11.2291 10.1714 9.71431 10.1714C8.19947 10.1714 6.97145 8.94339 6.97145 7.42856C6.97145 5.91372 8.19947 4.6857 9.71431 4.6857C11.2291 4.6857 12.4572 5.91372 12.4572 7.42856Z" stroke="currentColor" stroke-linecap="round"/>
</svg>
