<svg width="25" height="24" viewBox="0 0 25 24" fill="none" xmlns="http://www.w3.org/2000/svg">
<path d="M3 5.22402L5.83822 10.419V13.5878L3.00332 18.7726L3 5.22402Z" fill="#5B57A2"/>
<path d="M13.8976 8.52859L16.5571 6.85939L22 6.85419L13.8976 11.937V8.52859Z" fill="#D90751"/>
<path d="M13.8826 5.19339L13.8976 12.0714L11.0528 10.2814V0L13.8826 5.19339Z" fill="#FAB718"/>
<path d="M22 6.85419L16.5569 6.85939L13.8826 5.19339L11.0528 0L22 6.85419Z" fill="#ED6F26"/>
<path d="M13.8976 18.8014V15.4644L11.0528 13.7084L11.0543 24L13.8976 18.8014Z" fill="#63B22F"/>
<path d="M16.5505 17.1474L5.83822 10.419L3 5.22402L21.9885 17.1406L16.5505 17.1474Z" fill="#1487C9"/>
<path d="M11.0545 24L13.8976 18.8014L16.5503 17.1474L21.9883 17.1406L11.0545 24Z" fill="#017F36"/>
<path d="M3.00332 18.7726L11.076 13.7086L8.36202 12.0034L5.83822 13.5878L3.00332 18.7726Z" fill="#984995"/>
</svg>
