<svg width="336" height="255" viewBox="0 0 336 255" fill="none" xmlns="http://www.w3.org/2000/svg">
<path d="M5.69903 187.217L0.25884 136.451L2.18379 129.219L9.03503 131.042L30.3107 51.1111L23.4595 49.2875L25.5364 41.4847L55.3424 0.71105L335.863 75.3787L298.478 215.829L259.576 254.793L5.69903 187.217Z" fill="#41AE6D"/>
<path d="M295.028 77.96L67.4143 17.3748L42.8714 54.4544L21.5956 134.386L24.3563 179.14L251.97 239.725L284.988 204.494L288.737 190.411L279.574 183.489L291.022 140.478L302.464 138.836L306.264 124.563L295.028 77.96Z" fill="#2F3231"/>
<path d="M295.034 146.845L286.321 179.578L290.459 183.94L300.843 144.926L295.034 146.845Z" fill="#2F3231"/>
<path d="M49.3563 74.4983L37.1157 120.485L31.029 123.446L45.618 68.6361L49.3563 74.4983Z" fill="#41AE6D"/>
<path d="M110.223 62.5995L81.8428 55.0455L58.5556 142.534L64.0661 155.472L136.537 174.762L148.764 166.545L172.051 79.0566L143.671 71.5026L125.679 139.096L92.2313 130.193L110.223 62.5995Z" fill="#41AE6D"/>
<path d="M261.075 145.797L232.99 138.321L236.917 123.566L205.29 115.147L192.965 161.449L224.593 169.868L228.385 155.621L256.471 163.097L248.615 192.608L233.238 200.502L165.175 182.385L160.31 169.103L180.693 92.5267L191.313 84.1838L259.376 102.301L268.998 116.031L261.075 145.797Z" fill="#41AE6D"/>
</svg>
