<svg width="32" height="20" viewBox="0 0 32 20" fill="none" xmlns="http://www.w3.org/2000/svg">
<path d="M1.87423 19.875L0 14.998V14.2321H0.72551V5.76786H0V4.94158L1.87423 0.125H31.5798V14.998L28.7584 19.875H1.87423Z" fill="#41AE6D"/>
<path d="M27.6097 1.4551H3.50663L2.05561 5.76786V14.2321L3.50663 18.5852H27.6097L29.9475 14.2321V12.7408L28.8592 12.2974V7.74286L29.9475 7.27934V5.76786L27.6097 1.4551Z" fill="#1C1E1D"/>
<path d="M29.4235 8.26684V11.7332L29.9474 12.0556V7.92423L29.4235 8.26684Z" fill="#1C1E1D"/>
<path d="M3.22449 7.57927V12.449L2.70051 12.902V7.09796L3.22449 7.57927Z" fill="#41AE6D"/>
<path d="M8.9303 4.80051H5.925V14.0651L6.81049 15.1995H14.4847L15.4776 14.0651V4.80051H12.4723V11.9582H8.9303V4.80051Z" fill="#41AE6D"/>
<path d="M26.0378 9.05709H23.0636V7.49455H19.7144V12.3977H23.0636V10.889H26.0378V14.0141L24.7249 15.1995H17.5173L16.6867 14.0141V5.90507L17.5173 4.80051H24.7249L26.0378 5.90507V9.05709Z" fill="#41AE6D"/>
</svg>
